<mxfile host="app.diagrams.net" modified="2023-10-03T17:55:39.731Z" agent="Mozilla/5.0 (Macintosh; Intel Mac OS X 10_15_7) AppleWebKit/537.36 (KHTML, like Gecko) Chrome/114.0.0.0 Safari/537.36" etag="qj8_yzrMKqB-ml_ZyIhP" version="22.0.0" type="device">
  <diagram name="第 1 页" id="BvLjiq_2y-Ex-Wa1Q2ga">
    <mxGraphModel dx="768" dy="449" grid="1" gridSize="10" guides="1" tooltips="1" connect="1" arrows="1" fold="1" page="1" pageScale="1" pageWidth="827" pageHeight="1169" math="0" shadow="0">
      <root>
        <mxCell id="0" />
        <mxCell id="1" parent="0" />
        <mxCell id="8sRVR_l84B-pR_Qccy8K-3" value="" style="rounded=0;whiteSpace=wrap;html=1;sketch=1;curveFitting=1;jiggle=2;fillColor=#dae8fc;strokeColor=#6c8ebf;" vertex="1" parent="1">
          <mxGeometry x="400" y="510" width="270" height="160" as="geometry" />
        </mxCell>
        <mxCell id="8sRVR_l84B-pR_Qccy8K-4" value="" style="html=1;whiteSpace=wrap;sketch=1;curveFitting=1;jiggle=2;fillColor=#f8cecc;strokeColor=#b85450;" vertex="1" parent="1">
          <mxGeometry x="420" y="545" width="240" height="105" as="geometry" />
        </mxCell>
        <mxCell id="8sRVR_l84B-pR_Qccy8K-5" value="Application" style="text;html=1;align=center;verticalAlign=middle;resizable=0;points=[];autosize=1;strokeColor=none;fillColor=none;sketch=1;curveFitting=1;jiggle=2;" vertex="1" parent="1">
          <mxGeometry x="405" y="510" width="80" height="30" as="geometry" />
        </mxCell>
        <mxCell id="8sRVR_l84B-pR_Qccy8K-6" value="VertexArray" style="text;html=1;align=center;verticalAlign=middle;resizable=0;points=[];autosize=1;strokeColor=none;fillColor=none;" vertex="1" parent="1">
          <mxGeometry x="420" y="550" width="90" height="30" as="geometry" />
        </mxCell>
        <mxCell id="8sRVR_l84B-pR_Qccy8K-7" value="VertexBuffer" style="html=1;whiteSpace=wrap;sketch=1;hachureGap=4;jiggle=2;curveFitting=1;" vertex="1" parent="1">
          <mxGeometry x="440" y="590" width="90" height="30" as="geometry" />
        </mxCell>
        <mxCell id="8sRVR_l84B-pR_Qccy8K-8" value="IndexBuffer" style="html=1;whiteSpace=wrap;sketch=1;hachureGap=4;jiggle=2;curveFitting=1;" vertex="1" parent="1">
          <mxGeometry x="550" y="590" width="90" height="30" as="geometry" />
        </mxCell>
        <mxCell id="8sRVR_l84B-pR_Qccy8K-9" value="" style="rounded=0;whiteSpace=wrap;html=1;sketch=1;curveFitting=1;jiggle=2;fillColor=#dae8fc;strokeColor=#6c8ebf;" vertex="1" parent="1">
          <mxGeometry x="400" y="300" width="270" height="150" as="geometry" />
        </mxCell>
        <mxCell id="8sRVR_l84B-pR_Qccy8K-11" value="Application" style="text;html=1;align=center;verticalAlign=middle;resizable=0;points=[];autosize=1;strokeColor=none;fillColor=none;sketch=1;curveFitting=1;jiggle=2;" vertex="1" parent="1">
          <mxGeometry x="405" y="300" width="80" height="30" as="geometry" />
        </mxCell>
        <mxCell id="8sRVR_l84B-pR_Qccy8K-13" value="VertexBuffer" style="html=1;whiteSpace=wrap;sketch=1;hachureGap=4;jiggle=2;curveFitting=1;" vertex="1" parent="1">
          <mxGeometry x="553.5" y="390" width="90" height="30" as="geometry" />
        </mxCell>
        <mxCell id="8sRVR_l84B-pR_Qccy8K-14" value="IndexBuffer" style="html=1;whiteSpace=wrap;sketch=1;hachureGap=4;jiggle=2;curveFitting=1;" vertex="1" parent="1">
          <mxGeometry x="426.5" y="390" width="90" height="30" as="geometry" />
        </mxCell>
        <mxCell id="8sRVR_l84B-pR_Qccy8K-15" value="VertexArray" style="html=1;whiteSpace=wrap;sketch=1;hachureGap=4;jiggle=2;curveFitting=1;" vertex="1" parent="1">
          <mxGeometry x="488.5" y="340" width="90" height="30" as="geometry" />
        </mxCell>
        <mxCell id="8sRVR_l84B-pR_Qccy8K-16" value="" style="html=1;shadow=0;dashed=0;align=center;verticalAlign=middle;shape=mxgraph.arrows2.arrow;dy=0.59;dx=19;direction=south;notch=0;sketch=1;hachureGap=4;jiggle=2;curveFitting=1;fontFamily=Architects Daughter;fontSource=https%3A%2F%2Ffonts.googleapis.com%2Fcss%3Ffamily%3DArchitects%2BDaughter;fontSize=20;fillColor=#d5e8d4;strokeColor=#82b366;" vertex="1" parent="1">
          <mxGeometry x="523.5" y="470" width="20" height="30" as="geometry" />
        </mxCell>
      </root>
    </mxGraphModel>
  </diagram>
</mxfile>
